<svg width="24" height="24" viewBox="0 0 24 24" fill="none" xmlns="http://www.w3.org/2000/svg">
<g clip-path="url(#clip0_125_1215)">
<path d="M11.8186 3.39059C11.8903 3.23625 12.1097 3.23625 12.1814 3.39059L14.5029 8.38957C14.5321 8.45232 14.5916 8.49555 14.6603 8.50387L20.132 9.16703C20.3009 9.18751 20.3687 9.3962 20.2441 9.51206L16.2072 13.2648C16.1565 13.3119 16.1338 13.3818 16.1471 13.4497L17.2072 18.8585C17.24 19.0255 17.0624 19.1545 16.9137 19.0718L12.0972 16.3921C12.0368 16.3585 11.9632 16.3585 11.9028 16.3921L7.08627 19.0718C6.93755 19.1545 6.76003 19.0255 6.79277 18.8585L7.85291 13.4497C7.86622 13.3818 7.84349 13.3119 7.79282 13.2648L3.75591 9.51206C3.63127 9.3962 3.69908 9.18751 3.86802 9.16703L9.33973 8.50387C9.40841 8.49555 9.46791 8.45232 9.49706 8.38956L11.8186 3.39059Z" fill="inherit"/>
</g>
<defs>
<clipPath id="clip0_125_1215">
<rect width="24" height="24" fill="white"/>
</clipPath>
</defs>
</svg>
