<svg width="24" height="24" viewBox="0 0 24 24" fill="none" xmlns="http://www.w3.org/2000/svg">
<path fill-rule="evenodd" clip-rule="evenodd" d="M10.9704 4.76867L10.2845 4.04061C11.4704 3.88776 14.5997 4.08376 17.6289 6.0906C17.6683 6.36777 17.6598 6.64407 17.6598 6.64407L17.8831 6.76494L17.8844 6.76686L17.8848 6.76401L17.8893 6.76677C18.0145 6.98185 18.1411 7.30254 18.222 7.67987C18.3198 8.13643 18.3477 8.66205 18.2336 9.16468C18.1187 9.67111 17.9006 10.0891 17.687 10.3948C17.5291 10.6207 17.3787 10.7787 17.2798 10.8651C16.8928 10.8733 16.1725 11.1329 15.9666 12.0331C15.346 12.3883 14.3718 12.7434 13.085 12.7434C11.8557 12.7434 10.6019 12.3873 9.65929 11.6977C8.72051 11.0108 8.09005 9.99411 8.09005 8.65555C8.09005 7.59076 8.56707 6.759 9.17205 6.14729C9.77906 5.53359 10.6088 5.03635 11.09 4.87133L10.9704 4.76867ZM16.2861 6.51531C16.0476 6.77534 15.8246 6.90009 15.761 6.93392C14.3683 6.62384 13.8666 5.8697 13.8666 5.8697C15.1802 5.86122 16.3658 6.18826 17.2332 6.7415C17.2332 6.7415 16.7637 6.58222 16.2861 6.51531ZM10.2647 4.96993C7.27886 5.57148 5 8.2611 5 11.5135C5 15.6255 8.47028 19.0231 12.7511 19.0231C15.9477 19.0231 18.6085 17.0655 19.9998 14.4465C18.1495 14.886 15.9403 14.1046 15.9262 12.3965C15.2602 12.7394 14.3011 13.0438 13.0847 13.0438C11.8027 13.0438 10.4841 12.6734 9.48207 11.9403C8.47619 11.2043 7.7898 10.102 7.7898 8.6555C7.7898 7.49229 8.31319 6.58845 8.9587 5.93579C9.33214 5.56174 9.84416 5.20677 10.2647 4.96993ZM18.3639 7.08723C18.4228 7.24951 18.4745 7.42807 18.515 7.61688C18.6196 8.10528 18.6518 8.67635 18.5258 9.23134C18.4007 9.78254 18.1639 10.2359 17.9325 10.5672C17.8396 10.7001 17.746 10.8156 17.6593 10.9108C17.8346 10.9659 17.9367 11.0543 17.9862 11.1068C18.0878 11.2147 18.342 11.5384 18.037 12.0509C18.6723 11.943 19.6647 11.2956 19.7397 9.65026C19.7918 8.50786 19.1667 7.688 18.3639 7.08723Z" fill="inherit"/>
</svg>
