<svg width="24" height="24" viewBox="0 0 24 24" fill="none" xmlns="http://www.w3.org/2000/svg">
<g clip-path="url(#clip0_125_1032)">
<path fill-rule="evenodd" clip-rule="evenodd" d="M12 20C16.4183 20 20 16.4183 20 12C20 7.58172 16.4183 4 12 4C7.58172 4 4 7.58172 4 12C4 16.4183 7.58172 20 12 20ZM13 7C13 7.55228 12.5523 8 12 8C11.4477 8 11 7.55228 11 7C11 6.44772 11.4477 6 12 6C12.5523 6 13 6.44772 13 7ZM12 9.29291C12.5523 9.29291 13 9.74062 13 10.2929V14.8787L14.2929 13.5858C14.6834 13.1953 15.3166 13.1953 15.7071 13.5858C16.0976 13.9763 16.0976 14.6095 15.7071 15L12.7071 18C12.3166 18.3905 11.6834 18.3905 11.2929 18L8.29289 15C7.90237 14.6095 7.90237 13.9763 8.29289 13.5858C8.68342 13.1953 9.31658 13.1953 9.70711 13.5858L11 14.8787V10.2929C11 9.74062 11.4477 9.29291 12 9.29291Z" fill="inherit"/>
</g>
<defs>
<clipPath id="clip0_125_1032">
<rect width="24" height="24" fill="white"/>
</clipPath>
</defs>
</svg>
